<?xml version="1.0" encoding="UTF-8" standalone="no"?>
<!-- Created with Inkscape (http://www.inkscape.org/) -->

<svg
   xmlns:dc="http://purl.org/dc/elements/1.1/"
   xmlns:cc="http://creativecommons.org/ns#"
   xmlns:rdf="http://www.w3.org/1999/02/22-rdf-syntax-ns#"
   xmlns:svg="http://www.w3.org/2000/svg"
   xmlns="http://www.w3.org/2000/svg"
   xmlns:sodipodi="http://sodipodi.sourceforge.net/DTD/sodipodi-0.dtd"
   xmlns:inkscape="http://www.inkscape.org/namespaces/inkscape"
   width="512"
   height="512"
   id="svg2"
   version="1.1"
   inkscape:version="0.48.1 r9760"
   sodipodi:docname="icon.svg"
   inkscape:export-filename="/home/joj/PDF/icon.png"
   inkscape:export-xdpi="300"
   inkscape:export-ydpi="300">
  <defs
     id="defs4">
    <linearGradient
       id="linearGradient3842">
      <stop
         style="stop-color:#7af422;stop-opacity:1;"
         offset="0"
         id="stop3844" />
      <stop
         style="stop-color:#000000;stop-opacity:0;"
         offset="1"
         id="stop3846" />
    </linearGradient>
  </defs>
  <sodipodi:namedview
     id="base"
     pagecolor="#ffffff"
     bordercolor="#666666"
     borderopacity="1.0"
     inkscape:pageopacity="0.0"
     inkscape:pageshadow="2"
     inkscape:zoom="0.90509668"
     inkscape:cx="251.41115"
     inkscape:cy="193.48164"
     inkscape:document-units="px"
     inkscape:current-layer="layer1"
     showgrid="false"
     inkscape:showpageshadow="false"
     inkscape:window-width="1276"
     inkscape:window-height="778"
     inkscape:window-x="0"
     inkscape:window-y="18"
     inkscape:window-maximized="0"
     inkscape:snap-bbox="true"
     inkscape:bbox-paths="true"
     inkscape:bbox-nodes="true"
     inkscape:snap-bbox-edge-midpoints="true"
     inkscape:snap-bbox-midpoints="true"
     inkscape:object-paths="true"
     inkscape:object-nodes="true"
     inkscape:snap-intersection-paths="true"
     inkscape:snap-smooth-nodes="true"
     inkscape:snap-object-midpoints="true"
     inkscape:snap-center="false"
     inkscape:snap-midpoints="true"
     showguides="true"
     inkscape:guide-bbox="true"
     inkscape:snap-global="false">
    <sodipodi:guide
       position="434.79855,-16.057901"
       orientation="0,512"
       id="guide3820" />
    <sodipodi:guide
       position="512,0"
       orientation="-512,0"
       id="guide3822" />
    <sodipodi:guide
       position="512,512"
       orientation="0,-512"
       id="guide3824" />
    <sodipodi:guide
       position="0,512"
       orientation="512,0"
       id="guide3826" />
  </sodipodi:namedview>
  <metadata
     id="metadata7">
    <rdf:RDF>
      <cc:Work
         rdf:about="">
        <dc:format>image/svg+xml</dc:format>
        <dc:type
           rdf:resource="http://purl.org/dc/dcmitype/StillImage" />
        <dc:title></dc:title>
      </cc:Work>
    </rdf:RDF>
  </metadata>
  <g
     inkscape:label="Layer 1"
     inkscape:groupmode="layer"
     id="layer1"
     transform="translate(0,-540.36218)">
    <path
       style="font-size:medium;font-style:normal;font-variant:normal;font-weight:normal;font-stretch:normal;text-indent:0;text-align:start;text-decoration:none;line-height:normal;letter-spacing:normal;word-spacing:normal;text-transform:none;direction:ltr;block-progression:tb;writing-mode:lr-tb;text-anchor:start;baseline-shift:baseline;color:#000000;fill:#0026a3;fill-opacity:1;stroke:none;stroke-width:42;marker:none;visibility:visible;display:inline;overflow:visible;enable-background:accumulate;font-family:Sans;-inkscape-font-specification:Sans"
       d="m 256,546.875 -10.53125,6.0625 -194.9375,112.625 -10.5,6.0625 0,12.125 0.03125,225.25 0,12.125 10.46875,6.0625 194.96875,112.5937 10.5,6.0626 10.53125,-6.0626 194.9375,-112.62495 10.5,-6.0625 0,-12.125 -0.0312,-225.25 0,-12.09375 -10.46875,-6.0625 L 266.5,552.9375 256,546.875 z m 0,48.5 173.9375,100.46875 0.0312,201 L 256,997.34375 82.0625,896.875 82.03125,695.875 256,595.375 z"
       id="path3816"
       inkscape:connector-curvature="0" />
    <g
       style="font-size:40px;font-style:normal;font-weight:normal;line-height:125%;letter-spacing:0px;word-spacing:0px;fill:#000000;fill-opacity:1;stroke:none;font-family:Sans"
       id="flowRoot3868" />
    <g
       transform="matrix(0,5.1218671,-5.1218671,0,1336.3465,-176.79257)"
       style="font-size:64px;font-style:normal;font-variant:normal;font-weight:normal;font-stretch:normal;line-height:125%;letter-spacing:0px;word-spacing:0px;fill:#a30026;fill-opacity:1;stroke:#a30026;stroke-width:4.10006734;stroke-miterlimit:4;stroke-opacity:1;stroke-dasharray:none;font-family:Jura;-inkscape-font-specification:Jura"
       id="flowRoot3878">
      <path
         d="m 177.75,201.11576 c -1e-5,1.41669 0.31249,2.66669 0.9375,3.75 0.62499,1.04169 1.39582,1.66669 2.3125,1.875 l 17.1875,3.0625 c 3.04163,0.58335 5.22913,1.89585 6.5625,3.9375 1.3333,2.00001 1.99996,4.35418 2,7.0625 -4e-5,2.91667 -0.9167,5.39583 -2.75,7.4375 -1.83337,2.04166 -4.8542,3.0625 -9.0625,3.0625 l -6,0 c -5.50002,0 -9.50001,-0.79167 -12,-2.375 -2.45834,-1.58333 -3.68751,-4.75 -3.6875,-9.5 -1e-5,-1.79166 0.79166,-2.68749 2.375,-2.6875 0.66666,1e-5 1.18749,0.25001 1.5625,0.75 0.41666,0.50001 0.62499,1.14584 0.625,1.9375 -1e-5,3.20834 0.70832,5.25 2.125,6.125 1.45832,0.83333 4.45832,1.25 9,1.25 l 7.375,0 c 2.16664,0 3.68747,-0.64583 4.5625,-1.9375 0.91663,-1.33333 1.37497,-2.74999 1.375,-4.25 -3e-5,-1.87499 -0.37503,-3.35416 -1.125,-4.4375 -0.75003,-1.12499 -1.45837,-1.77082 -2.125,-1.9375 l -17.0625,-3.1875 c -3.12501,-0.62498 -5.35418,-1.72915 -6.6875,-3.3125 -1.33334,-1.62498 -2.00001,-3.89581 -2,-6.8125 -1e-5,-1.33331 0.18749,-2.56247 0.5625,-3.6875 0.41666,-1.12497 1.08333,-2.2083 2,-3.25 0.91666,-1.0833 2.24999,-1.91663 4,-2.5 1.79165,-0.62496 3.91665,-0.93746 6.375,-0.9375 l 4.75,0 c 2.79164,4e-5 5.06247,0.14587 6.8125,0.4375 1.79164,0.2917 3.41663,0.8542 4.875,1.6875 1.4583,0.7917 2.49996,1.9792 3.125,3.5625 0.66663,1.58336 0.99996,3.60419 1,6.0625 -4e-5,0.95836 -0.25004,1.64586 -0.75,2.0625 -0.45837,0.41669 -0.9792,0.62502 -1.5625,0.625 -0.6667,2e-5 -1.20837,-0.24998 -1.625,-0.75 -0.4167,-0.49998 -0.62503,-1.14581 -0.625,-1.9375 -3e-5,-3.2083 -0.70837,-5.2083 -2.125,-6 -1.4167,-0.8333 -4.45836,-1.24997 -9.125,-1.25 l -6.625,0 c -2.41668,3e-5 -4.12501,0.64587 -5.125,1.9375 -0.95834,1.2917 -1.43751,2.66669 -1.4375,4.125"
         style="font-weight:600;fill:#a30026;fill-opacity:1;stroke:#a30026;stroke-width:4.10006734;stroke-miterlimit:4;stroke-opacity:1;stroke-dasharray:none;font-family:Jura;-inkscape-font-specification:Jura Semi-Bold"
         id="path3966"
         inkscape:connector-curvature="0" />
    </g>
  </g>
</svg>
